<svg width="121" height="32" viewBox="0 0 121 32" fill="none" xmlns="http://www.w3.org/2000/svg">
<g clip-path="url(#clip0_4_5104)">
<path d="M9.08733 23.6712V13.5127H11.2881C15.3611 13.5127 18.2517 14.954 18.2517 19.7696C18.2517 23.8471 16.5108 25.7804 12.6348 25.7804C10.7625 25.7804 9.08733 25.7101 9.08733 23.6712ZM9.08733 12.5313V4.06748C9.08733 2.78308 9.30081 2.71723 10.9732 2.71723C15.6701 2.71723 17.7694 3.73814 17.7694 7.262C17.7694 10.4565 15.9903 12.4655 12.3609 12.5313H9.08733ZM3.5135 5.52126V22.4856C3.5135 25.5 3.20943 25.7804 0.405273 25.8155V26.7618H12.6016C17.5343 26.7618 23.075 25.8855 23.075 19.9971C23.075 15.7209 19.156 13.8983 15.7098 13.1973V13.1272C18.7167 12.5664 21.656 10.7438 21.656 7.20369C21.656 2.01623 15.3045 1.24512 11.1827 1.24512H0.405273V2.19148C3.20943 2.22653 3.5135 2.50694 3.5135 5.52126ZM27.985 14.0656C27.985 13.6541 27.5946 13.2428 25.7487 13.1399V12.3171C27.843 11.9399 29.9018 11.2885 31.9606 10.5685V24.1798C31.9606 25.2426 32.1736 25.4482 33.9485 25.4482V26.2711H25.8552V25.4482C27.772 25.4482 27.985 25.2426 27.985 24.1798V14.0656ZM32.4826 3.83269C32.4826 5.31131 31.2294 6.42027 29.9392 6.42027C28.6491 6.42027 27.3958 5.31131 27.3958 3.83269C27.3958 2.35408 28.6491 1.24512 29.9392 1.24512C31.2294 1.24512 32.4826 2.35408 32.4826 3.83269ZM45.4899 12.4376C45.5625 12.5313 45.6276 12.6383 45.6836 12.7607L51.797 26.6804H52.7296L57.7723 14.3378L62.9187 26.6804H63.9549L68.7213 14.8522C69.2739 13.4464 69.861 12.075 71.4844 11.8008V10.9779H66.2689V11.8008L66.3466 11.8136C67.3512 11.9794 68.2377 12.1257 68.2377 12.7607C68.2377 13.035 68.0305 13.5493 67.7541 14.235L64.9911 21.7778L61.7788 13.8578C61.7299 13.7243 61.655 13.5477 61.5787 13.3678C61.4394 13.0396 61.2953 12.7 61.2953 12.5893C61.2953 12.1436 62.1588 11.9036 63.4712 11.8008V10.9779H54.422V11.8008C56.4252 11.9722 57.047 12.6236 57.047 13.2064C57.047 13.5541 56.8496 14.0244 56.6008 14.617C56.5553 14.7255 56.5081 14.8382 56.4598 14.9549L53.7658 21.6406L50.5191 14.0979C50.4455 13.9099 50.3687 13.7346 50.2973 13.5721C50.1346 13.2011 50.001 12.8963 50.001 12.6579C50.001 12.2122 50.899 11.8008 52.3497 11.8008V10.9779H43.9913V10.9849L40.7846 10.9904V5.17078L35.3082 11.3692V12.1956H37.1118V23.5593C37.1118 25.4189 38.6531 26.7618 40.9814 26.7618C42.4245 26.7618 44.6542 25.7632 45.4742 24.5578V23.3182C44.7198 24.0413 43.8017 24.9022 42.7194 24.9022C40.9487 24.9022 40.7846 23.697 40.7846 22.8705V12.1956L44.5615 12.1881C44.5615 12.1881 45.3279 12.2513 45.4899 12.4376ZM72.9306 13.1399C74.7763 13.2428 75.1667 13.6541 75.1667 14.0656V24.1798C75.1667 25.2426 74.9538 25.4482 73.037 25.4482V26.2711H81.1302V25.4482C79.3554 25.4482 79.1423 25.2426 79.1423 24.1798V10.5685C77.0835 11.2885 75.0247 11.9399 72.9306 12.3171V13.1399ZM77.1585 6.42027C78.4487 6.42027 79.702 5.31131 79.702 3.83269C79.702 2.35408 78.4487 1.24512 77.1585 1.24512C75.8684 1.24512 74.6151 2.35408 74.6151 3.83269C74.6151 5.31131 75.8684 6.42027 77.1585 6.42027ZM95.4114 11.8379C93.433 11.1175 91.6314 10.5685 89.8298 10.5685C87.0744 10.5685 83.5418 11.9752 83.5418 15.1315C83.5418 17.6016 85.8027 18.8711 88.0635 19.9002C90.3243 20.9638 92.5853 21.8216 92.5853 23.4683C92.5853 24.8406 91.7374 25.9384 90.2538 25.9384C86.8272 25.9384 85.1315 23.1595 84.4957 20.2433L83.6478 20.3806L83.9657 25.561C85.3788 26.1785 87.9222 26.7618 89.4412 26.7618C92.8325 26.7618 96.0826 25.6982 96.0826 21.89C96.0826 19.2485 93.7157 18.0819 91.5255 17.0183C88.8407 15.7148 86.8272 14.8227 86.8272 13.6562C86.8272 12.3525 88.0282 11.3919 89.2647 11.3919C92.1615 11.3919 93.6804 14.0679 94.5636 16.4351L95.4114 16.3665V11.8379ZM112.868 20.7923L113.359 21.3069C111.956 24.6689 109.571 26.7618 105.677 26.7618C100.661 26.7618 97.9246 23.6741 97.9246 18.9395C97.9246 14.2394 101.362 10.5685 106.168 10.5685C109.957 10.5685 113.289 13.3475 113.289 17.1899H101.854C101.678 20.4835 103.783 23.6741 107.431 23.6741C109.852 23.6741 111.43 22.6448 112.868 20.7923ZM101.87 16.4569H108.252C108.9 16.4569 109.105 16.3581 109.105 15.666C109.105 13.6226 107.536 12.0406 105.693 12.0406C102.826 12.0406 102.007 14.4465 101.87 16.4569Z" fill="white"/>
<path d="M115.362 12.8854C116.895 12.8854 118.125 11.6217 118.125 10.054C118.125 8.48638 116.895 7.22266 115.362 7.22266C113.834 7.22266 112.599 8.48638 112.599 10.054C112.599 11.6217 113.834 12.8854 115.362 12.8854ZM115.362 12.1603C114.215 12.1603 113.292 11.2218 113.292 10.054C113.292 8.88096 114.215 7.94783 115.362 7.94783C116.514 7.94783 117.432 8.88096 117.432 10.054C117.432 11.2218 116.514 12.1603 115.362 12.1603ZM114.924 11.3124V10.4326H115.315L115.894 11.3124H116.67L116.008 10.3367C116.347 10.2353 116.545 9.94207 116.545 9.54748C116.545 9.05159 116.165 8.71566 115.607 8.71566H114.272V11.3124H114.924ZM114.924 9.27022H115.45C115.711 9.27022 115.847 9.38219 115.847 9.59548C115.847 9.8141 115.711 9.91541 115.44 9.91541H114.924V9.27022Z" fill="white"/>
</g>
<defs>
<clipPath id="clip0_4_5104">
<rect width="119.971" height="31.2969" fill="white" transform="translate(0.405273 0.3125)"/>
</clipPath>
</defs>
</svg>
