<svg width="121" height="31" viewBox="0 0 121 31" fill="none" xmlns="http://www.w3.org/2000/svg">
<g clip-path="url(#clip0_4_5113)">
<path fill-rule="evenodd" clip-rule="evenodd" d="M120.595 23.2676C115.581 31.7695 107.639 29.3025 105.254 27.371C104.239 28.0597 102.459 29.5694 100.085 29.3951C95.0307 29.024 93.2206 21.8006 93.2206 21.8006C93.2569 21.8295 91.7149 22.3327 90.8815 22.3237C90.8708 24.4421 89.0397 29.5023 84.0979 29.4375C78.5525 29.3652 77.4251 21.1035 77.4251 21.1035C77.4251 21.1035 76.8733 21.8698 74.775 22.6331C74.8806 21.0056 74.8034 29.1898 68.157 29.3101C62.9026 29.4053 61.4842 20.9761 61.4842 20.9761C61.4842 20.9761 60.5727 21.923 58.8061 22.2514C58.9184 20.5975 58.7359 29.3379 52.0887 29.3101C47.5966 29.2915 46.0615 24.1177 46.1809 23.3996C46.3332 22.4845 44.6627 29.4388 40.2993 29.3305C38.4987 29.2776 37.1562 27.9738 36.3139 26.2357C35.1862 27.5261 33.549 29.3305 31.7124 29.3305C28.4155 29.3305 26.9621 26.573 27.2083 18.6972C27.2292 17.7631 27.1618 17.3957 26.2332 17.2559C25.6759 17.1629 25.1051 16.9869 24.5011 16.8941C24.3076 17.54 22.6658 29.1203 17.0203 29.3401C15.1263 29.4138 14.0907 27.7732 13.2402 26.5555C11.9365 28.2802 10.2155 29.3951 7.76378 29.3951C3.6108 29.3951 0.78125 26.0377 0.78125 21.8963C0.78125 17.7547 3.6108 14.3978 7.76378 14.3978C8.49807 14.3978 8.7042 14.503 9.37502 14.6987C7.99546 2.13822 11.2534 0.175189 14.1034 0.175189C16.8396 0.175189 21.5141 6.5258 14.9367 22.6343C16.397 27.4391 19.5451 27.1673 21.0579 17.2765C21.3658 15.266 20.5426 12.5529 21.8231 12.1742C24.1639 11.4822 24.4122 13.5585 25.5098 13.9044C26.6703 14.27 27.3477 14.2343 28.4618 14.467C30.3655 14.8388 31.1084 15.8615 30.8765 18.1392C30.5979 21.0213 30.1107 25.2161 31.5963 25.7273C32.6676 26.0987 34.6236 23.8769 34.9669 22.6613C35.31 21.4457 35.3817 21.0296 35.4121 20.138C35.4586 18.2324 35.5168 16.8355 35.8418 15.3943C35.9809 14.8366 36.1394 14.4673 36.7704 14.4421C37.2895 14.4288 38.2389 14.2725 38.6569 14.5978C39.2139 15.0164 39.1443 15.4411 39.0804 16.5588C38.4325 32.4958 43.4188 24.5399 44.9056 18.1697C44.3761 10.9664 44.7396 0.307094 49.2535 0.128318C51.6011 0.0353439 52.6389 1.91602 52.7531 3.31976C53.076 7.28447 51.2673 13.8519 48.8886 18.2685C47.5291 27.2804 54.8326 29.0622 56.0005 21.869C54.0897 20.9605 52.0246 17.2831 53.705 15.491C54.648 14.4853 58.5731 15.9301 58.6374 19.0814C60.5627 18.5665 60.8198 17.4794 60.8465 17.6595C60.3172 10.4562 60.8081 0.307187 65.3223 0.12841C67.6696 0.0354359 68.7072 1.91611 68.8214 3.31986C69.1443 7.28455 67.3356 13.852 64.9572 18.2687C63.5976 27.2804 70.9012 29.0624 72.0688 21.8692C70.6541 21.5962 67.6677 17.6848 69.3908 15.4911C70.3116 14.3189 74.2224 16.7567 74.6602 19.1857C76.5098 18.6623 76.761 17.6098 76.7875 17.7869C76.2581 10.5839 76.749 0.434845 81.2632 0.256068C83.6105 0.163094 84.6481 2.04377 84.7623 3.44752C85.0852 7.41221 83.2765 13.9798 80.8978 18.3964C79.5385 27.4083 86.8419 29.1898 88.0099 21.9966C86.0657 21.6729 83.3027 17.543 85.5265 15.4303C86.415 14.5861 89.8099 16.7774 90.6046 19.2773C91.7087 19.2348 92.396 18.854 92.5434 18.8156C90.7806 10.3594 92.0929 0.213229 96.9489 0.128534C99.5736 0.0828007 102.14 1.54748 101.013 9.59243C99.9382 17.2683 96.0737 20.4895 96.0827 20.5387C96.3076 21.4583 98.2906 29.1541 103.284 25.0935C103.026 24.5082 102.767 23.9103 102.622 23.1858C101.795 18.9661 103.42 14.1999 107.839 13.4296C110.371 12.9882 112.755 14.2208 113.133 16.9995C113.753 21.5464 109.647 24.8393 108.086 25.5536C107.387 25.1564 114.425 29.6703 118.602 20.6243C118.844 20.1078 119.136 20.1516 119.514 20.4178C119.781 20.6058 121.303 22.0474 120.595 23.2676ZM10.7847 20.7791C10.5722 20.1437 10.136 18.7436 9.98179 18.137C9.13238 17.3984 8.5261 17.2784 7.4358 17.2784C5.01283 17.2784 3.58671 19.5186 3.58671 21.9342C3.58671 24.3497 5.14036 26.5902 7.56335 26.5902C9.66314 26.5902 11.2613 25.1625 11.7489 23.1415C11.4076 22.3536 11.069 21.6295 10.7847 20.7791ZM14.0441 3.50005C12.3416 3.50005 11.764 7.56142 11.8761 11.0261C11.9752 14.0894 12.8312 16.7862 13.2752 17.9946C13.388 18.146 13.367 18.0475 13.4677 18.2081C16.4238 11.7311 15.1977 3.50005 14.0441 3.50005ZM49.4967 3.62763C47.2962 3.37526 47.3105 12.5417 47.5836 14.5978C48.7265 12.7696 50.7117 4.11988 49.4967 3.62763ZM65.565 3.62763C63.3646 3.37526 63.3788 12.5417 63.6521 14.5978C64.7948 12.7696 66.7801 4.11988 65.565 3.62763ZM81.506 3.75516C79.3055 3.50279 79.3197 12.6692 79.593 14.7255C80.7357 12.8971 82.721 4.24738 81.506 3.75516ZM97.1918 3.09104C93.7634 3.77949 94.5617 15.2102 95.0825 17.2151C99.1208 11.6684 99.204 2.88269 97.1918 3.09104ZM110.04 17.3756C109.866 16.6468 108.995 16.2573 108.393 16.3533C106.672 16.5884 105.002 18.7323 105.648 21.9963C105.792 22.7232 106.152 23.3924 106.146 23.3701C109.999 20.7855 110.326 18.7488 110.04 17.3756ZM37.4452 11.9191C36.9532 11.9192 36.4722 11.7734 36.0631 11.5001C35.654 11.2268 35.3351 10.8383 35.1467 10.3838C34.9584 9.9293 34.9091 9.42912 35.0051 8.94658C35.1009 8.46402 35.3379 8.02076 35.6858 7.67284C36.0336 7.32492 36.4768 7.08798 36.9594 6.99198C37.4419 6.89598 37.9421 6.94523 38.3967 7.13352C38.8512 7.32179 39.2397 7.64065 39.513 8.04974C39.7863 8.45883 39.9322 8.93979 39.9322 9.43177C39.9322 9.7584 39.8679 10.0818 39.7429 10.3836C39.618 10.6853 39.4348 10.9595 39.2038 11.1905C38.9728 11.4215 38.6987 11.6047 38.397 11.7297C38.0952 11.8547 37.7719 11.9191 37.4452 11.9191Z" fill="white"/>
</g>
<defs>
<clipPath id="clip0_4_5113">
<rect width="120" height="30" fill="white" transform="translate(0.78125 0.125)"/>
</clipPath>
</defs>
</svg>
