<svg width="105" height="121" viewBox="0 0 105 121" fill="none" xmlns="http://www.w3.org/2000/svg">
<g clip-path="url(#clip0_4_5235)">
<path fill-rule="evenodd" clip-rule="evenodd" d="M0 52.8906C0 24.1718 23.505 0.890625 52.5 0.890625C81.495 0.890625 105 24.1718 105 52.8906V120.891H76.7308H48.4615H0V88.8906V70.8906V52.8906ZM8.07692 88.8906V112.891H40.3846V88.8906C40.3846 80.054 33.1523 72.8906 24.2308 72.8906C15.3092 72.8906 8.07692 80.054 8.07692 88.8906ZM48.4615 112.891V88.8906C48.4615 75.6358 37.6131 64.8906 24.2308 64.8906C18.0248 64.8906 12.3638 67.2014 8.07692 71.0018V70.8906C8.07692 54.3221 21.6375 40.8906 38.3654 40.8906C55.0932 40.8906 68.6538 54.3221 68.6538 70.8906V112.891H48.4615ZM96.9231 112.891H76.7308V70.8906C76.7308 49.9038 59.554 32.8906 38.3654 32.8906C26.2759 32.8906 15.4924 38.4292 8.46027 47.0843C11.3293 25.5281 29.953 8.89062 52.5 8.89062C77.0342 8.89062 96.9231 28.5901 96.9231 52.8906V112.891Z" fill="white"/>
</g>
<defs>
<clipPath id="clip0_4_5235">
<rect width="105" height="120" fill="white" transform="translate(0 0.890625)"/>
</clipPath>
</defs>
</svg>
