<svg width="241" height="129" viewBox="0 0 241 129" fill="none" xmlns="http://www.w3.org/2000/svg">
<g clip-path="url(#clip0_4_4916)">
<path d="M18.6495 65.1252C16.4695 65.1252 14.6225 64.883 13.1086 64.3986C11.5946 63.9141 10.2927 63.4599 9.20261 63.036C8.17316 62.5516 7.23452 62.3093 6.38672 62.3093C5.11502 62.3093 3.78276 63.0965 2.38994 64.671H1.84493L0.664062 43.0522H1.48158C5.53892 56.4353 11.2616 63.1268 18.6495 63.1268C21.193 63.1268 23.2216 62.2487 24.7356 60.4926C26.2495 58.6759 27.0065 56.3141 27.0065 53.4074C27.0065 50.9851 26.5523 48.8959 25.6439 47.1398C24.7356 45.323 23.5244 43.7182 22.0105 42.3254C20.4965 40.872 18.8312 39.5398 17.0145 38.3287C15.2584 37.1175 13.4719 35.8761 11.6552 34.6044C9.89907 33.3327 8.264 31.9399 6.75006 30.4259C5.29669 28.8515 4.11582 27.065 3.20747 25.0666C2.29911 23.0683 1.84493 20.7065 1.84493 17.9814C1.84493 14.893 2.42022 12.1982 3.57081 9.89707C4.78195 7.5353 6.44728 5.71858 8.56681 4.44688C10.7469 3.11462 13.2297 2.44849 16.0153 2.44849C17.6504 2.44849 19.0734 2.63017 20.2846 2.99351C21.4957 3.35685 22.5252 3.7202 23.373 4.08353C24.2814 4.38632 25.0383 4.53772 25.6439 4.53772C26.2495 4.53772 26.7643 4.41661 27.1882 4.17438C27.6121 3.93214 28.0662 3.50825 28.5507 2.90267H29.0956L29.3682 20.2523H28.5507C26.9156 14.8628 25.0383 10.8962 22.9188 8.35282C20.8599 5.74886 18.4982 4.44688 15.8337 4.44688C13.5931 4.44688 11.7764 5.20385 10.3835 6.71778C9.05128 8.17115 8.38511 10.109 8.38511 12.5313C8.38511 14.6508 8.83929 16.4978 9.74765 18.0723C10.656 19.5862 11.8368 20.9487 13.2902 22.1599C14.8042 23.3105 16.4392 24.4611 18.1953 25.6116C20.0121 26.7017 21.7985 27.8825 23.5547 29.1542C25.3714 30.4259 27.0065 31.8793 28.4598 33.5144C29.9738 35.1494 31.1849 37.1175 32.0933 39.4187C33.0016 41.7199 33.4558 44.445 33.4558 47.5939C33.4558 51.0457 32.8199 54.1038 31.5482 56.7683C30.3371 59.3723 28.6112 61.4312 26.3706 62.9452C24.13 64.3986 21.5563 65.1252 18.6495 65.1252ZM38.8123 18.8898C41.6585 18.2842 43.9899 16.8914 45.8066 14.7113C47.6839 12.5313 49.107 9.62451 50.0759 5.99109H50.8026V18.8898H56.6161V21.4332H50.8026V55.1333C50.8026 57.7372 51.1357 59.6448 51.8018 60.8559C52.4679 62.0065 53.7396 62.8543 55.6169 63.3994V64.2169H38.8123V63.3994C39.66 63.1571 40.2656 62.5819 40.629 61.6735C41.0529 60.7046 41.2649 59.3117 41.2649 57.495V27.4284C41.2649 25.3694 41.1134 23.7344 40.8107 22.5232C40.5684 21.312 39.9023 20.3735 38.8123 19.7073V18.8898ZM71.3719 65.1252C68.9497 65.1252 66.7999 64.6105 64.9226 63.581C63.0454 62.491 61.592 61.0073 60.5625 59.13C59.533 57.1922 59.0183 54.9819 59.0183 52.4991C59.0183 48.0178 60.5019 43.7182 63.4693 39.6003C66.4365 35.4219 71.0995 31.1829 77.458 26.8833C76.9129 24.0371 76.1257 21.9782 75.0962 20.7065C74.1273 19.4348 72.7951 18.7989 71.0995 18.7989C69.4644 18.7989 68.223 19.344 67.3752 20.434C66.588 21.4635 66.1035 23.159 65.9218 25.5208C65.7402 27.6403 64.7712 28.7 63.0151 28.7C62.1672 28.7 61.4709 28.4276 60.9258 27.8825C60.3808 27.3375 60.1083 26.6108 60.1083 25.7025C60.1083 24.0674 60.6836 22.5838 61.8342 21.2515C62.9848 19.8587 64.529 18.7687 66.4668 17.9814C68.4047 17.1336 70.5544 16.7098 72.9162 16.7098C81.7575 16.7098 86.7234 21.1607 87.8131 30.0626L91.0831 56.95C91.568 60.7651 92.5369 62.9149 93.9899 63.3994V64.2169H90.3566C87.9347 64.2169 86.0875 63.6718 84.8157 62.5819C83.6043 61.4312 82.7268 59.4934 82.1816 56.7683C81.0914 59.4329 79.6077 61.4918 77.7305 62.9452C75.9137 64.3986 73.7943 65.1252 71.3719 65.1252ZM68.556 49.4107C68.556 52.6807 69.1616 55.2241 70.3727 57.0409C71.5839 58.8576 73.2492 59.7659 75.3687 59.7659C76.701 59.7659 77.9424 59.3723 79.093 58.585C80.3042 57.7978 81.2428 56.7986 81.9089 55.5875L81.8181 54.9516L77.6396 28.2459C74.5512 31.516 72.25 34.9374 70.7361 38.5104C69.2828 42.0227 68.556 45.6561 68.556 49.4107ZM96.5604 64.2169V63.3994C97.4085 63.1571 98.0142 62.5819 98.3774 61.6735C98.8011 60.7046 99.0133 59.3117 99.0133 57.495V27.2466C99.0133 24.8244 98.8313 23.0985 98.468 22.0691C98.1652 21.0396 97.5293 20.2221 96.5604 19.6165V18.7989L108.187 17.0731L108.46 26.0658C109.307 23.2802 110.428 21.1001 111.821 19.5256C113.275 17.9512 114.818 17.1639 116.453 17.1639C117.604 17.1639 118.482 17.4667 119.088 18.0723C119.754 18.6778 120.087 19.5256 120.087 20.6157C120.087 21.524 119.815 22.281 119.269 22.8866C118.724 23.4316 118.028 23.7041 117.18 23.7041C116.332 23.7041 115.696 23.5829 115.273 23.3407C114.848 23.038 114.304 22.8866 113.638 22.8866C112.608 22.8866 111.609 23.4922 110.64 24.7033C109.732 25.9144 109.036 27.4889 108.551 29.4268V55.315C108.551 57.9189 108.854 59.7962 109.459 60.9468C110.125 62.0368 111.337 62.8543 113.093 63.3994V64.2169H96.5604ZM123.793 18.8898C126.64 18.2842 128.971 16.8914 130.788 14.7113C132.665 12.5313 134.088 9.62451 135.057 5.99109H135.784V18.8898H141.597V21.4332H135.784V55.1333C135.784 57.7372 136.117 59.6448 136.783 60.8559C137.449 62.0065 138.721 62.8543 140.598 63.3994V64.2169H123.793V63.3994C124.641 63.1571 125.247 62.5819 125.61 61.6735C126.034 60.7046 126.246 59.3117 126.246 57.495V27.4284C126.246 25.3694 126.094 23.7344 125.792 22.5232C125.55 21.312 124.884 20.3735 123.793 19.7073V18.8898ZM151.63 0.995117C153.204 0.995117 154.506 1.54014 155.536 2.63017C156.565 3.65964 157.079 4.93134 157.079 6.44527C157.079 8.01976 156.565 9.35203 155.536 10.442C154.506 11.4715 153.204 11.9863 151.63 11.9863C150.055 11.9863 148.723 11.4715 147.633 10.442C146.603 9.35203 146.089 8.01976 146.089 6.44527C146.089 4.93134 146.603 3.65964 147.633 2.63017C148.723 1.54014 150.055 0.995117 151.63 0.995117ZM144.817 18.8898L156.808 17.6181V57.495C156.808 59.3723 156.989 60.7651 157.352 61.6735C157.715 62.5819 158.321 63.1571 159.169 63.3994V64.2169H144.817V63.3994C145.665 63.1571 146.27 62.5819 146.634 61.6735C147.058 60.7046 147.269 59.3117 147.269 57.495V27.5192C147.269 25.0969 147.088 23.3407 146.724 22.2507C146.422 21.1607 145.786 20.3129 144.817 19.7073V18.8898ZM164.953 64.2169V63.3994C165.801 63.1571 166.407 62.5819 166.77 61.6735C167.194 60.7046 167.406 59.3117 167.406 57.495V27.4284C167.406 25.006 167.224 23.2499 166.861 22.1599C166.558 21.0698 165.922 20.2221 164.953 19.6165V18.7989L176.58 17.0731L176.853 24.0674C177.822 21.8268 179.275 20.0403 181.213 18.7081C183.151 17.3758 185.301 16.7098 187.662 16.7098C191.357 16.7098 194.202 17.9209 196.201 20.3432C198.2 22.7049 199.199 26.1567 199.199 30.6985V57.495C199.199 59.3723 199.38 60.7651 199.743 61.6735C200.107 62.5819 200.712 63.1571 201.56 63.3994V64.2169H187.208V63.3994C188.056 63.1571 188.661 62.5819 189.025 61.6735C189.449 60.7046 189.661 59.3117 189.661 57.495V31.4251C189.661 25.1272 187.481 21.9782 183.121 21.9782C181.849 21.9782 180.637 22.281 179.487 22.8866C178.398 23.4922 177.549 24.3097 176.944 25.3392V57.495C176.944 59.3723 177.126 60.7651 177.489 61.6735C177.852 62.5819 178.458 63.1571 179.305 63.3994V64.2169H164.953ZM222.804 80.5673C217.475 80.5673 213.236 79.659 210.087 77.8422C206.998 76.0255 205.454 73.5426 205.454 70.3937C205.454 68.2136 206.18 66.3061 207.634 64.671C209.087 63.036 211.086 61.7945 213.629 60.9468C209.935 59.5539 208.088 57.2225 208.088 53.9524C208.088 51.954 208.694 50.1676 209.905 48.5931C211.117 46.9581 212.752 45.6864 214.81 44.778C212.388 43.688 210.511 42.0227 209.179 39.782C207.907 37.4809 207.271 34.7255 207.271 31.516C207.271 26.9136 208.603 23.3105 211.268 20.7065C213.932 18.042 217.626 16.7098 222.349 16.7098H226.437C227.89 16.7098 228.951 16.5281 229.617 16.1647C230.283 15.8014 230.919 15.1049 231.524 14.0754C232.069 13.1066 232.584 12.4404 233.068 12.0771C233.553 11.6532 234.128 11.4412 234.794 11.4412C235.642 11.4412 236.308 11.7138 236.793 12.2587C237.277 12.7432 237.519 13.3791 237.519 14.1663C237.519 16.9519 234.945 18.3448 229.798 18.3448H228.072V18.6172C230.979 19.344 233.22 20.8579 234.794 23.159C236.369 25.3996 237.156 28.1853 237.156 31.516C237.156 36.1789 235.854 39.8426 233.25 42.5071C230.646 45.1111 227.013 46.413 222.349 46.413C219.927 46.413 217.747 46.0194 215.809 45.2322C214.538 46.4433 213.902 47.7756 213.902 49.229C213.902 50.3795 214.295 51.2577 215.083 51.8632C215.87 52.4082 217.111 52.8321 218.807 53.1349L229.071 54.5882C232.887 55.1333 235.672 56.3141 237.429 58.1308C239.245 59.8871 240.153 62.3699 240.153 65.5794C240.153 68.5467 239.427 71.1507 237.973 73.3913C236.58 75.6925 234.582 77.4486 231.978 78.6597C229.435 79.9314 226.377 80.5673 222.804 80.5673ZM222.349 18.4356C218.535 18.4356 216.627 22.7957 216.627 31.516C216.627 40.2362 218.535 44.5963 222.349 44.5963C224.166 44.5963 225.529 43.5063 226.437 41.3262C227.406 39.0856 227.89 35.8156 227.89 31.516C227.89 27.2769 227.406 24.0371 226.437 21.7965C225.468 19.5559 224.106 18.4356 222.349 18.4356ZM212.63 69.122C212.63 71.9682 213.569 74.2391 215.446 75.9347C217.384 77.6908 219.988 78.5689 223.258 78.5689C226.407 78.5689 228.859 77.7514 230.616 76.1164C232.432 74.4813 233.341 72.3921 233.341 69.8487C233.341 66.6998 231.312 64.7316 227.254 63.9444L216.627 61.7643C216.082 61.6432 215.567 61.5221 215.083 61.4009C214.356 62.2487 213.751 63.3085 213.266 64.5802C212.842 65.9124 212.63 67.4264 212.63 69.122ZM46.9503 110.175C50.4626 120.773 54.9438 126.071 60.3939 126.071C62.1501 126.071 63.5429 125.496 64.5724 124.346C65.6019 123.195 66.1166 121.681 66.1166 119.804C66.1166 117.624 65.6322 115.776 64.6632 114.263C63.7549 112.688 62.5437 111.295 61.0298 110.085C59.5764 108.873 58.0019 107.722 56.3063 106.633C54.6107 105.482 53.0059 104.241 51.4921 102.909C50.0387 101.515 48.8275 99.9406 47.8586 98.1848C46.9503 96.3678 46.4961 94.2185 46.4961 91.7354C46.4961 89.3739 47.0108 87.2842 48.0402 85.4679C49.0697 83.5905 50.4928 82.1371 52.3096 81.1076C54.1868 80.0781 56.3063 79.5635 58.6681 79.5635C60.6059 79.5635 62.2409 79.8359 63.5732 80.381C64.966 80.8654 66.0258 81.1076 66.7524 81.1076C67.7819 81.1076 68.5086 80.7443 68.9325 80.0176H69.4775L70.5676 94.8242H69.7501C66.6616 85.9218 62.9071 81.4709 58.4864 81.4709C56.9119 81.4709 55.61 81.9857 54.5805 83.015C53.6115 83.9839 53.1271 85.3161 53.1271 87.0124C53.1271 88.7078 53.5812 90.191 54.4896 91.4627C55.4585 92.7345 56.6999 93.9156 58.2139 95.0054C59.7278 96.0347 61.3326 97.1253 63.0282 98.2754C64.7238 99.366 66.3285 100.638 67.8425 102.091C69.3564 103.483 70.5676 105.18 71.4759 107.178C72.4449 109.116 72.9293 111.477 72.9293 114.263C72.9293 116.988 72.3843 119.38 71.2942 121.439C70.2647 123.498 68.8114 125.103 66.9341 126.253C65.0569 127.404 62.8163 127.979 60.2123 127.979C58.2139 127.979 56.4275 127.706 54.8529 127.161C53.2785 126.677 51.8857 126.435 50.6745 126.435C49.4028 126.435 48.4944 126.798 47.9495 127.524H47.4044L46.1328 110.175H46.9503ZM94.7792 127.979C91.2668 127.979 88.178 126.98 85.5136 124.982C82.8493 122.922 80.7598 120.076 79.246 116.443C77.732 112.749 76.9751 108.51 76.9751 103.726C76.9751 98.9415 77.732 94.7327 79.246 91.0995C80.7598 87.4662 82.8493 84.65 85.5136 82.6518C88.178 80.5929 91.2668 79.5635 94.7792 79.5635C98.3521 79.5635 101.47 80.5929 104.135 82.6518C106.8 84.65 108.858 87.4662 110.311 91.0995C111.826 94.7327 112.582 98.9415 112.582 103.726C112.582 108.51 111.826 112.749 110.311 116.443C108.858 120.076 106.77 122.922 104.044 124.982C101.38 126.98 98.2909 127.979 94.7792 127.979ZM94.7792 81.4709C92.4169 81.4709 90.5705 83.3783 89.2375 87.1936C87.9666 90.9485 87.3307 96.4592 87.3307 103.726C87.3307 110.992 87.9666 116.534 89.2375 120.348C90.5705 124.164 92.4169 126.071 94.7792 126.071C97.2011 126.071 99.0484 124.164 100.32 120.348C101.652 116.534 102.318 110.992 102.318 103.726C102.318 96.4592 101.652 90.9485 100.32 87.1936C99.0484 83.3783 97.2011 81.4709 94.7792 81.4709ZM134.076 127.979C130.563 127.979 127.475 126.98 124.811 124.982C122.146 122.922 120.057 120.076 118.543 116.443C117.029 112.749 116.272 108.51 116.272 103.726C116.272 98.9415 117.029 94.7327 118.543 91.0995C120.057 87.4662 122.146 84.65 124.811 82.6518C127.475 80.5929 130.563 79.5635 134.076 79.5635C137.649 79.5635 140.768 80.5929 143.432 82.6518C146.096 84.65 148.156 87.4662 149.609 91.0995C151.123 94.7327 151.88 98.9415 151.88 103.726C151.88 108.51 151.123 112.749 149.609 116.443C148.156 120.076 146.066 122.922 143.341 124.982C140.677 126.98 137.588 127.979 134.076 127.979ZM134.076 81.4709C131.714 81.4709 129.867 83.3783 128.535 87.1936C127.263 90.9485 126.627 96.4592 126.627 103.726C126.627 110.992 127.263 116.534 128.535 120.348C129.867 124.164 131.714 126.071 134.076 126.071C136.499 126.071 138.345 124.164 139.617 120.348C140.949 116.534 141.615 110.992 141.615 103.726C141.615 96.4592 140.949 90.9485 139.617 87.1936C138.345 83.3783 136.499 81.4709 134.076 81.4709ZM156.659 127.071V126.253C157.507 126.011 158.113 125.436 158.476 124.527C158.9 123.558 159.112 122.166 159.112 120.348V90.2824C159.112 87.8597 158.93 86.1038 158.567 85.0133C158.264 83.9235 157.628 83.0754 156.659 82.4706V81.6526L168.286 79.9268L168.559 86.9209C169.528 84.6802 170.981 82.8942 172.919 81.5618C174.856 80.2295 177.007 79.5635 179.368 79.5635C183.063 79.5635 185.908 80.7746 187.907 83.1971C189.905 85.5586 190.905 89.0106 190.905 93.5524V120.348C190.905 122.226 191.086 123.619 191.45 124.527C191.813 125.436 192.419 126.011 193.266 126.253V127.071H178.914V126.253C179.762 126.011 180.367 125.436 180.731 124.527C181.155 123.558 181.366 122.166 181.366 120.348V94.2789C181.366 87.9813 179.187 84.8321 174.826 84.8321C173.555 84.8321 172.344 85.1349 171.193 85.7406C170.103 86.3455 169.255 87.1634 168.649 88.1927V120.348C168.649 122.226 168.832 123.619 169.195 124.527C169.558 125.436 170.164 126.011 171.012 126.253V127.071H156.659Z" fill="white"/>
</g>
<defs>
<clipPath id="clip0_4_4916">
<rect width="239.987" height="128.156" fill="white" transform="translate(0.334961 0.546875)"/>
</clipPath>
</defs>
</svg>
