<svg width="94" height="29" viewBox="0 0 94 29" fill="none" xmlns="http://www.w3.org/2000/svg">
<g clip-path="url(#clip0_4_5062)">
<path d="M3.35607 9.38939C3.17594 9.56805 2.98649 9.73681 2.78875 9.89594V7.21418H0.397461V28.0878H2.79557V20.4338C6.24713 24.4061 10.2258 24.0073 12.7997 22.3995C15.9542 20.4475 17.3055 16.2391 16.1776 12.3548C14.4282 6.63339 7.26049 4.66757 3.35607 9.38939ZM7.74042 21.2311C4.58583 21.2311 2.65374 18.529 2.62682 15.1515C2.59946 11.774 5.22074 8.98372 8.36187 8.9568C11.5026 8.93003 13.9884 11.5846 13.9884 15.1378C13.9591 18.5253 11.1889 21.2473 7.8015 21.218H7.80105H7.73347L7.74042 21.2311Z" fill="#7D888E"/>
<path d="M88.6465 2.35059V7.07921H93.6792V9.24084H88.7747C88.7408 9.76083 88.687 10.1391 88.687 10.5919C88.687 13.0778 88.7815 15.5702 88.687 18.0223C88.5382 20.9475 90.0382 21.569 92.7398 21.0284C92.9688 20.9658 93.1944 20.8913 93.4153 20.8057C93.9762 22.6362 93.6248 23.1902 91.8006 23.4197C87.9978 23.872 86.1737 22.2644 86.1673 18.4212V9.34215L84.0059 9.24084V7.21409L86.1536 7.07921V2.35059H88.6465Z" fill="#7D888E"/>
<path d="M39.0434 23.1291H36.625V7.21424H38.9962V10.8891C40.6644 8.36959 42.5152 6.76183 45.4743 6.8834V9.36255C40.678 10.2612 39.0369 12.2943 39.0369 17.266C39.0434 19.1639 39.0434 21.096 39.0434 23.1291Z" fill="#7D888E"/>
<path d="M60.3149 0.587029V9.84152C56.1 6.06533 52.2897 5.78832 49.0608 8.78067C45.8322 11.7735 45.5481 17.1575 48.2777 20.6633C49.3698 22.0776 50.945 23.0394 52.702 23.3655C55.7618 23.9804 58.16 22.7846 60.3016 20.1297V23.0817H62.6185V0.580078H60.3149V0.587029ZM54.5122 21.3321C51.3578 21.2577 48.9127 18.4678 48.9802 15.0021C49.0478 11.5368 51.4053 8.9228 54.6072 8.96332C57.8092 9.00369 60.3825 11.7531 60.3354 15.2657C60.3084 18.6095 57.6264 21.3995 54.519 21.3321H54.5122Z" fill="#7D888E"/>
<path d="M32.4438 11.9425C32.302 9.50383 30.8025 7.88927 28.4652 7.26116C25.5892 6.53115 22.5454 6.88462 19.9135 8.25412L20.5888 10.2331C23.4192 9.1795 24.9185 8.97008 26.7696 9.1999C28.8503 9.4633 30.6944 11.4491 29.9851 13.8067L29.2557 13.6515C26.5535 13.145 23.885 12.8474 21.3114 14.0365C18.8827 15.066 17.749 17.8692 18.7785 20.2978C19.1407 21.152 19.7437 21.8822 20.5142 22.3991C21.8589 23.2959 23.4724 23.6994 25.0809 23.5408C27.0204 23.3925 28.8324 22.5168 30.1538 21.0887L30.2688 23.1155H32.5182C32.5182 22.7576 32.6058 22.4399 32.599 22.1829C32.579 18.7584 32.6464 15.3199 32.4438 11.9425ZM27.8301 20.886C25.8511 21.8386 23.8314 21.9801 21.9737 20.6026C20.7479 19.6022 20.5654 17.7981 21.5652 16.5723C21.748 16.3492 21.9627 16.1547 22.203 15.9954C24.4626 14.9515 27.0312 14.7902 29.4039 15.5427C29.8067 15.7273 30.099 16.0901 30.1944 16.5223C30.5384 18.3462 29.5535 20.1611 27.8368 20.866L27.8301 20.886Z" fill="#7D888E"/>
<path d="M74.346 6.72776C69.6835 6.65011 65.8401 10.3673 65.7629 15.0298C65.6851 19.6926 69.4022 23.5358 74.0651 23.6134C78.7241 23.6908 82.5655 19.9793 82.6482 15.3203V15.2661C82.7347 10.6483 79.0614 6.83454 74.4433 6.74817C74.44 6.74817 74.4369 6.74803 74.434 6.74803L74.346 6.72776ZM74.346 21.3793C71.0564 21.3793 68.4487 18.6032 68.4624 15.077C68.4757 11.5506 70.982 8.92312 74.3192 8.94988C77.6561 8.97725 80.1757 11.7063 80.1757 15.158C80.1757 18.6098 77.6155 21.3663 74.3393 21.3793H74.346Z" fill="#7D888E"/>
</g>
<defs>
<clipPath id="clip0_4_5062">
<rect width="93.4693" height="27.6562" fill="white" transform="translate(0.265625 0.578125)"/>
</clipPath>
</defs>
</svg>
