<svg width="111" height="15" viewBox="0 0 111 15" fill="none" xmlns="http://www.w3.org/2000/svg">
<g clip-path="url(#clip0_4_4883)">
<path d="M10.0186 7.97785C10.0186 9.80062 8.65698 10.8767 7.1197 10.8767C5.45065 10.8767 4.22083 9.66885 4.22083 7.97785V0.686768H0.750977V7.82412C0.750977 11.1622 3.03493 14.0611 7.14165 14.0611C11.4021 14.0611 13.6861 11.1622 13.6861 7.82412V0.686768H10.0186V7.97785Z" fill="#6B6B6B"/>
<path d="M22.9535 0.37915C18.5394 0.37915 16.4092 3.27801 16.4092 6.61611V13.7534H19.901V6.46237C19.901 4.6396 21.2626 3.56351 22.7998 3.56351C24.4689 3.56351 25.6988 4.77137 25.6988 6.46237V13.7534H29.1906V6.61611C29.3443 3.27801 27.0603 0.37915 22.9535 0.37915Z" fill="#6B6B6B"/>
<path d="M36.0421 13.7756V0.686768H32.5283V2.50954V13.7756H36.0421Z" fill="#6B6B6B"/>
<path d="M45.6173 8.59276L41.9717 0.686768H38.3262L44.4094 13.7756H46.8251L52.9084 0.686768H49.2628L45.6173 8.59276Z" fill="#6B6B6B"/>
<path d="M58.7062 13.7756V0.686768H55.1924V2.50954V13.7756H58.7062Z" fill="#6B6B6B"/>
<path d="M65.6901 4.3322C65.6901 3.71729 66.4588 3.27806 67.513 3.27806C68.4354 3.27806 69.3358 3.73925 70.1043 4.20043L71.7734 1.60902C70.851 0.994109 69.0283 0.247437 67.3592 0.247437C64.7678 0.247437 62.3301 1.76275 62.3301 4.35415C62.3301 8.61461 68.7208 7.84598 68.7208 9.82248C68.7208 10.4374 67.9522 10.8766 67.0518 10.8766C65.6901 10.8766 64.3066 10.4154 63.4062 9.51501L61.4297 12.2601C62.945 13.3143 64.9216 14.0829 66.7443 14.0829C69.4894 14.0829 71.9051 12.5676 71.9051 9.9762C72.0809 5.40829 65.6901 6.15497 65.6901 4.3322Z" fill="#6B6B6B"/>
<path d="M78.318 13.7756V0.686768H74.8262V2.50954V13.7756H78.318Z" fill="#6B6B6B"/>
<path d="M87.8923 0.37915C83.9393 0.37915 80.8867 3.43174 80.8867 7.23101C80.8867 11.0303 83.9393 14.0829 87.8923 14.0829C91.8453 14.0829 94.8979 11.0303 94.8979 7.23101C94.8979 3.43174 91.8453 0.37915 87.8923 0.37915ZM87.8923 10.7228C85.9157 10.7228 84.4004 9.20751 84.4004 7.23101C84.4004 5.25451 85.762 3.58546 87.8923 3.58546C90.0225 3.58546 91.3841 5.25451 91.3841 7.23101C91.3841 9.20751 90.0225 10.7228 87.8923 10.7228Z" fill="#6B6B6B"/>
<path d="M103.858 0.37915C99.5975 0.37915 97.3135 3.27801 97.3135 6.61611V13.7534H100.805V6.46237C100.805 4.6396 102.167 3.56351 103.704 3.56351C105.373 3.56351 106.603 4.77137 106.603 6.46237V13.7534H110.249V6.61611C110.249 3.27801 107.965 0.37915 103.858 0.37915Z" fill="#6B6B6B"/>
</g>
<defs>
<clipPath id="clip0_4_4883">
<rect width="109.498" height="13.9062" fill="white" transform="translate(0.750977 0.229858)"/>
</clipPath>
</defs>
</svg>
