<svg width="115" height="31" viewBox="0 0 115 31" fill="none" xmlns="http://www.w3.org/2000/svg">
<g clip-path="url(#clip0_4_4878)">
<path d="M77.3132 6.61549C75.3059 6.61549 73.7581 7.33079 72.3219 8.82372V6.96337H68.3798V25.2692H72.6214V14.6522C72.6214 12.2217 74.0688 10.6841 76.2649 10.6841C76.664 10.6841 77.0137 10.7334 77.263 10.7827L80.207 6.91314C79.0592 6.71501 78.0611 6.61549 77.3123 6.61549H77.3132ZM113.892 6.96337H109.002L104.486 12.9342L99.9695 6.96244H95.0787L101.979 16.187L95.0787 25.2692H100.069L104.46 19.478L108.852 25.2692H113.892L106.946 16.2019L113.892 6.96337ZM24.8141 2.84548C23.3668 4.78025 23.017 5.42486 21.6199 5.42486H0.759766V30.2299H8.94438C10.7908 30.2299 12.587 29.3369 13.7348 27.8486C15.2324 25.8645 15.4314 25.2692 16.8788 25.2692H37.7891V0.464233H29.5543C27.7079 0.464233 25.9117 1.3572 24.8132 2.84548H24.8141ZM31.3012 18.8696H22.5677C20.6711 18.8696 18.9252 19.6631 17.7773 21.2006C16.2797 23.1856 15.9802 23.7809 14.5831 23.7809H7.19751V11.8747H15.9309C17.8266 11.8747 19.5735 10.9817 20.7213 9.49345C22.2189 7.55868 22.618 6.96337 23.9649 6.96337H31.3012V18.8696ZM62.6406 12.7677C64.488 11.7259 65.7846 9.8897 65.7846 7.45916C65.7846 3.88728 63.0406 0.464233 59.0483 0.464233H47.0714V25.2692H59.0483C63.3894 25.2692 66.3837 22.1931 66.3837 18.3236C66.3837 16.0419 65.3363 14.0569 62.6406 12.7677ZM51.313 4.33376H58.6986C60.545 4.33376 61.6426 6.0704 61.6426 7.60798C61.6426 9.49345 59.9962 10.7827 58.4493 10.7827H51.313V4.33376ZM58.4493 21.3997H51.313V14.6522H58.6986C60.5952 14.6522 62.1421 16.2893 62.1421 17.9767C62.1421 19.8612 60.1961 21.3997 58.4493 21.3997Z" fill="#6B6B6B"/>
<path d="M90.8376 20.0103C90.139 21.1023 88.7912 21.7469 87.2936 21.7469C84.9495 21.7469 83.0027 20.1591 83.0027 17.7286H95.6779C95.8779 16.9844 95.9272 16.6375 95.9272 15.9919C95.9272 10.436 92.484 6.61572 87.2945 6.61572C82.2037 6.61572 78.6113 10.2378 78.6113 16.1407C78.6113 21.8957 82.0539 25.6164 87.394 25.6164C91.1371 25.6164 94.4306 23.7812 95.3784 20.0103H90.8376ZM87.2936 10.4853C89.6395 10.4853 91.4366 11.9736 91.3864 14.206H83.052C83.052 12.0238 84.9495 10.4853 87.2936 10.4853Z" fill="#6B6B6B"/>
</g>
<defs>
<clipPath id="clip0_4_4878">
<rect width="113.481" height="29.7656" fill="white" transform="translate(0.759766 0.464233)"/>
</clipPath>
</defs>
</svg>
