<svg width="128" height="49" viewBox="0 0 128 49" fill="none" xmlns="http://www.w3.org/2000/svg">
<g clip-path="url(#clip0_4_4838)">
<path d="M0.254883 35.2814H6.18153V36.5999H1.67912V39.7026H5.82797V40.9553H1.67912V44.9309H0.254883V35.2814Z" fill="#6B6B6B"/>
<path d="M10.3793 37.4176C12.4607 37.4176 13.8649 38.9759 13.8649 41.2774C13.8649 43.5789 12.4666 45.1372 10.3793 45.1372C8.29186 45.1372 6.8916 43.5789 6.8916 41.2774C6.8916 38.9759 8.29785 37.4176 10.3793 37.4176ZM10.3793 38.6722C9.0549 38.6722 8.24191 39.6712 8.24191 41.2694C8.24191 42.8676 9.0549 43.8666 10.3793 43.8666C11.7035 43.8666 12.5145 42.8676 12.5145 41.2694C12.5145 39.6712 11.7016 38.6722 10.3793 38.6722Z" fill="#6B6B6B"/>
<path d="M15.085 37.6255H16.3534V38.2248H16.3814C16.671 37.7713 17.2363 37.4956 17.9115 37.4956C18.186 37.4987 18.459 37.5356 18.7245 37.6055L18.4628 38.956C18.2166 38.8802 17.9612 38.8385 17.7037 38.8322C16.8627 38.8322 16.4353 39.4115 16.4353 40.6782V44.9316H15.085V37.6255Z" fill="#6B6B6B"/>
<path d="M19.5713 37.6259H20.8677V38.1993H20.8936C21.1234 37.9463 21.4048 37.7452 21.7186 37.6098C22.0324 37.4744 22.3716 37.4077 22.7134 37.4141C23.0774 37.4078 23.4377 37.4868 23.7656 37.6451C24.0934 37.8033 24.3796 38.0363 24.601 38.3252H24.621C24.8706 38.0407 25.1777 37.8123 25.522 37.6553C25.8663 37.4982 26.2401 37.4161 26.6185 37.4141C28.1067 37.4141 29.2153 38.4491 29.2153 39.9095V44.9321H27.891V40.1372C27.891 39.2562 27.3257 38.6768 26.4588 38.6768C25.5919 38.6768 25.0245 39.2981 25.0245 40.2211V44.9361H23.7621V40.1412C23.7621 39.2602 23.1828 38.6807 22.3418 38.6807C21.4589 38.6807 20.8936 39.3021 20.8936 40.2251V44.94H19.5713V37.6259Z" fill="#6B6B6B"/>
<path d="M33.8145 37.4176C35.798 37.4176 37.1223 38.92 37.1223 41.1116V41.677H31.785C31.7776 42.2709 31.983 42.8478 32.3642 43.3032C32.5426 43.5108 32.7654 43.6757 33.016 43.7857C33.2668 43.8956 33.5389 43.9479 33.8124 43.9386C34.7352 43.9386 35.2866 43.5789 35.8938 42.602L36.9406 43.3032C36.2933 44.5179 35.2187 45.1372 33.8264 45.1372C31.7989 45.1372 30.4307 43.5789 30.4307 41.2774C30.4307 38.9759 31.8169 37.4176 33.8145 37.4176ZM35.7839 40.6441C35.7301 39.4454 34.971 38.6163 33.8145 38.6163C33.2832 38.6282 32.7775 38.8467 32.4046 39.2252C32.0318 39.6037 31.8209 40.1127 31.8169 40.6441H35.7839Z" fill="#6B6B6B"/>
<path d="M38.3409 37.6255H39.6053V38.2248H39.6333C39.923 37.7713 40.4883 37.4956 41.1634 37.4956C41.4378 37.4987 41.711 37.5356 41.9764 37.6055L41.7147 38.956C41.4692 38.8804 41.2145 38.8387 40.9576 38.8322C40.1167 38.8322 39.6894 39.4115 39.6894 40.6782V44.9316H38.3369L38.3409 37.6255Z" fill="#6B6B6B"/>
<path d="M42.8262 34.8673H44.1766V44.9305H42.8262V34.8673Z" fill="#6B6B6B"/>
<path d="M47.7802 44.3803L44.9697 37.6256H46.388L48.4554 42.8199H48.4834L50.5788 37.6256H51.993L47.6505 48.0324H46.2521L47.7802 44.3803Z" fill="#6B6B6B"/>
<path d="M55.4932 35.2814H56.9134V39.9543H56.9394L60.7587 35.2814H62.4546L58.925 39.5268L62.8121 44.9309H61.0882L58.044 40.5956H58.0161L56.9134 41.9462V44.9309H55.4932V35.2814Z" fill="#6B6B6B"/>
<path d="M66.126 37.4176C68.1115 37.4176 69.4339 38.92 69.4339 41.1116V41.677H64.1005C64.0922 42.271 64.2978 42.8482 64.6798 43.3032C64.8576 43.511 65.0799 43.676 65.3303 43.786C65.5807 43.896 65.8526 43.9481 66.126 43.9386C67.0488 43.9386 67.6002 43.5789 68.2074 42.602L69.2541 43.3032C68.6069 44.5179 67.5323 45.1372 66.14 45.1372C64.1145 45.1372 62.7441 43.5789 62.7441 41.2774C62.7441 38.9759 64.1284 37.4176 66.126 37.4176ZM68.0975 40.6441C68.0416 39.4454 67.2846 38.6163 66.126 38.6163C65.5948 38.6282 65.0892 38.8467 64.7162 39.2252C64.3433 39.6037 64.1325 40.1127 64.1284 40.6441H68.0975Z" fill="#6B6B6B"/>
<path d="M73.7188 37.4176C75.7043 37.4176 77.0266 38.92 77.0266 41.1116V41.677H71.6932C71.6859 42.2709 71.8913 42.8478 72.2725 43.3032C72.4506 43.5108 72.6729 43.6756 72.9233 43.7856C73.1736 43.8955 73.4455 43.9478 73.7188 43.9386C74.6435 43.9386 75.1949 43.5789 75.8002 42.602L76.8489 43.3032C76.1997 44.5179 75.125 45.1372 73.7327 45.1372C71.7072 45.1372 70.3369 43.5789 70.3369 41.2774C70.3369 38.9759 71.7212 37.4176 73.7188 37.4176ZM75.6903 40.6441C75.6344 39.4454 74.8773 38.6163 73.7188 38.6163C73.1875 38.6282 72.6818 38.8467 72.309 39.2252C71.9361 39.6037 71.7252 40.1127 71.7212 40.6441H75.6903Z" fill="#6B6B6B"/>
<path d="M78.248 37.6257H79.5706V38.3009H79.5986C79.8649 38.0169 80.1876 37.7917 80.5461 37.6396C80.9044 37.4876 81.2907 37.4121 81.68 37.4179C83.5816 37.4179 84.9599 39.0162 84.9599 41.2777C84.9599 43.5393 83.5815 45.1375 81.6939 45.1375C81.308 45.1432 80.9251 45.0689 80.5693 44.9194C80.2135 44.7698 79.8925 44.5482 79.6265 44.2684H79.5986V48.0324H78.248V37.6257ZM81.5701 38.6726C81.3119 38.6709 81.056 38.7204 80.8169 38.8181C80.578 38.9158 80.3606 39.0597 80.1774 39.2416C79.9942 39.4235 79.8487 39.6399 79.7494 39.8783C79.6501 40.1166 79.5988 40.3722 79.5986 40.6305V41.9131C79.5951 42.1693 79.6424 42.4237 79.7376 42.6617C79.8329 42.8996 79.9743 43.1164 80.1536 43.2994C80.3329 43.4825 80.5468 43.6284 80.7826 43.7284C81.0185 43.8286 81.2719 43.8811 81.5281 43.8829C82.7966 43.8829 83.6096 42.884 83.6096 41.2857C83.6096 39.6875 82.8245 38.6726 81.5701 38.6726Z" fill="#6B6B6B"/>
<path d="M87.289 36.5999H84.3486V35.2814H91.6396V36.5999H88.7172V44.9309H87.2971L87.289 36.5999Z" fill="#6B6B6B"/>
<path d="M91.4297 37.6255H92.6982V38.2248H92.726C93.0157 37.7713 93.579 37.4956 94.2562 37.4956C94.5306 37.4987 94.8037 37.5356 95.0692 37.6055L94.8074 38.956C94.5613 38.8802 94.3059 38.8385 94.0485 38.8322C93.2075 38.8322 92.78 39.4115 92.78 40.6782V44.9316H91.4297V37.6255Z" fill="#6B6B6B"/>
<path d="M95.8554 37.6256H97.2057V42.1327C97.2057 43.3034 97.7431 43.8829 98.8458 43.8829C99.8445 43.8829 100.514 43.1935 100.514 42.1327V37.6256H101.864V44.9317H100.57V44.2824H100.528C100.086 44.8198 99.2872 45.1375 98.4463 45.1375C96.8062 45.1375 95.8496 44.1386 95.8496 42.3805L95.8554 37.6256Z" fill="#6B6B6B"/>
<path d="M106.522 37.4167C107.299 37.3959 108.057 37.6554 108.658 38.1479C109.252 38.634 109.638 39.3297 109.734 40.0918L108.438 40.3535C108.257 39.2927 107.555 38.6713 106.522 38.6713C105.254 38.6713 104.441 39.6703 104.441 41.2685C104.441 42.8668 105.254 43.8658 106.522 43.8658C107.555 43.8658 108.23 43.2663 108.438 42.1835L109.734 42.4473C109.638 43.2128 109.253 43.9125 108.658 44.4031C108.055 44.8914 107.297 45.146 106.522 45.1204C104.497 45.1204 103.091 43.55 103.091 41.2605C103.091 38.971 104.497 37.4167 106.522 37.4167Z" fill="#6B6B6B"/>
<path d="M110.91 34.8673H112.261V40.711H112.289L115.119 37.6243H116.939L114.25 40.4772L117.105 44.9305H115.519L113.341 41.4143H113.321L112.261 42.573V44.9305H110.91V34.8673Z" fill="#6B6B6B"/>
<path d="M117.896 34.9353H119.371V36.3558H117.896V34.9353ZM117.964 37.6244H119.311V44.9305H117.96L117.964 37.6244Z" fill="#6B6B6B"/>
<path d="M120.832 37.6254H122.129V38.2727H122.156C122.418 38.0007 122.733 37.7847 123.081 37.6377C123.429 37.4908 123.804 37.4159 124.182 37.4176C125.849 37.4176 126.938 38.5065 126.938 40.2146V44.9295H125.588V40.4224C125.588 39.3336 124.966 38.6723 123.92 38.6723C122.873 38.6723 122.184 39.3755 122.184 40.4224V44.9315H120.832V37.6254Z" fill="#6B6B6B"/>
<path d="M82.667 0.923462H77.0879V5.90208H82.667V0.923462Z" fill="#6B6B6B"/>
<path d="M69.7993 25.0214V13.0104H74.7133V8.14366H69.7993V0.923462H64.2063V8.13966H61.0303V13.0064H64.2082V30.006H74.7133V25.0114L69.7993 25.0214Z" fill="#6B6B6B"/>
<path d="M21.8142 8.13623H15.1324L5.14482 25.02H0.254883V30.0146H8.0632L16.2351 16.1876V30.0046H22.8269L30.9608 16.1476V30.0046H36.5539V8.13623H29.8421L21.8142 21.6976V8.13623Z" fill="#6B6B6B"/>
<path d="M82.6711 8.13623H77.0781V30.0046H82.6711V8.13823V8.13623Z" fill="#6B6B6B"/>
<path d="M82.6669 0.923462H77.0879V5.90608H82.6669V0.923462Z" fill="#6B6B6B"/>
<path d="M49.6814 7.8822H49.6394C43.6249 7.8822 38.7949 12.8768 38.7949 19.0701C38.7949 25.2634 43.6249 30.258 49.6394 30.258H49.6814C55.6979 30.258 60.484 25.2155 60.484 19.0701C60.484 12.9247 55.6979 7.8822 49.6814 7.8822ZM49.6814 24.6641H49.6394C46.6751 24.6641 44.3879 22.1648 44.3879 19.0701C44.3879 15.9755 46.6751 13.4762 49.6394 13.4762H49.6814C52.5618 13.4762 54.8969 16.0175 54.8969 19.0701C54.8929 22.1607 52.6058 24.6601 49.6814 24.6601V24.6641Z" fill="#6B6B6B"/>
<path d="M117.233 25.2914C119.481 25.2914 120.881 23.9789 121.262 22.8321H126.856C126.644 24.6562 124.227 30.256 117.229 30.256C110.911 30.256 106.243 25.5053 106.243 19.0562C106.243 12.737 111.037 7.85828 117.058 7.85828C122.783 7.85828 127.245 12.8628 127.245 18.9723C127.245 19.6076 127.203 20.203 127.161 20.6265H111.979C112.357 23.2996 113.969 25.2914 117.233 25.2914ZM112.151 16.6388H121.74C121.14 14.4412 119.662 12.821 117.075 12.821C114.364 12.821 112.786 14.3912 112.157 16.6388H112.151Z" fill="#6B6B6B"/>
<path d="M101.33 8.14253L96.0005 22.447L90.6711 8.14253H84.6904L93.15 30.007H98.779L107.288 8.15452H101.33C101.33 8.15452 101.33 8.14053 101.33 8.14253Z" fill="#6B6B6B"/>
</g>
<defs>
<clipPath id="clip0_4_4838">
<rect width="126.99" height="47.1094" fill="white" transform="translate(0.254883 0.923462)"/>
</clipPath>
</defs>
</svg>
