<svg width="137" height="27" viewBox="0 0 137 27" fill="none" xmlns="http://www.w3.org/2000/svg">
<g clip-path="url(#clip0_4_4869)">
<path fill-rule="evenodd" clip-rule="evenodd" d="M59.2236 7.14013C60.9888 7.14013 62.7168 7.46091 63.7578 7.75095L63.8469 7.77608L63.9308 7.34742H71.1277V9.73205L69.5347 9.90441L71.8104 17.9777H72.0095L74.5412 7.72091H78.8367L81.283 17.9777H81.4537L83.5872 9.90441L81.9657 9.73205L82.3356 7.34742H88.3097L88.3088 8.95554C88.1801 9.21332 88.0599 9.47662 87.95 9.74502L87.2848 9.87565C86.902 9.93093 86.7295 10.0659 86.6162 10.4082L86.6024 10.4503L83.1036 22.316H78.609L76.3903 12.6912H76.2196L73.9723 22.316H68.852L65.2677 10.4216C65.1587 10.0912 65.0235 10.0247 64.712 9.94381L64.6704 9.93316L64.4195 9.87883L64.4356 9.94381V12.122L61.4048 11.9217L61.1214 10.4327C61.0935 10.2037 61.0365 10.0893 60.8386 10.032L60.7482 10.0056C60.3653 9.90063 59.7317 9.80287 59.0257 9.80287C57.6094 9.80287 56.816 10.3469 56.816 11.2631C56.816 12.2642 57.9496 12.5991 59.355 12.9246L60.3039 13.1427L60.4351 13.1742C62.5823 13.6961 64.8607 14.5779 64.8607 17.7621C64.8607 21.2553 62.0567 22.6866 58.4591 22.6866C55.9497 22.6866 53.4941 22.0354 52.8953 21.6841L52.8505 21.656V17.5046L55.8814 17.7336L56.1651 19.3656L56.1739 19.4353C56.2054 19.6444 56.2743 19.7432 56.5048 19.7948L56.5713 19.8163L56.6469 19.8386L56.7316 19.8617L56.829 19.8859C57.2377 19.9832 57.8729 20.0812 58.686 20.0812C60.1867 20.0812 61.0365 19.6519 61.0365 18.5925C61.0365 17.466 59.9403 17.1153 58.5299 16.8587L57.8848 16.7413L57.61 16.6887C55.4008 16.2542 52.9643 15.4677 52.9643 12.1508C52.9643 8.6006 55.9664 7.14013 59.2236 7.14013ZM33.1014 7.14013C37.3405 7.14013 39.0672 8.29113 39.1012 12.2031L39.1018 12.3225L39.1018 19.3214L39.1028 19.3983L39.1053 19.4666L39.1099 19.5292C39.1317 19.7439 39.2093 19.7989 39.4764 19.8411L39.5526 19.8521L40.6986 20.0463V17.5046L43.713 17.7336L43.995 19.3656C44.0225 19.6231 44.0795 19.7377 44.333 19.7948L44.3991 19.8163L44.4742 19.8386L44.5585 19.8617L44.6554 19.8859C45.0618 19.9832 45.6936 20.0812 46.5022 20.0812C47.9948 20.0812 48.8399 19.6519 48.8399 18.5925C48.8399 17.5036 47.8211 17.1396 46.4862 16.8847L45.6966 16.7397L45.4236 16.687L45.2256 16.6468L45.0328 16.6058C42.9516 16.1501 40.8117 15.2676 40.8117 12.1508C40.8117 8.6006 43.7975 7.14013 47.0369 7.14013C49.1875 7.14013 51.2856 7.62177 52.1363 7.9381L52.2205 7.97048V12.122L49.2062 11.9217L48.9244 10.4327C48.8966 10.2037 48.8399 10.0893 48.6432 10.032C48.2769 9.91754 47.6008 9.80287 46.8402 9.80287C45.4315 9.80287 44.6426 10.3469 44.6426 11.2631C44.6426 12.2816 45.809 12.6102 47.2401 12.9414L47.9103 13.0955C50.1357 13.6107 52.6433 14.4125 52.6433 17.7621C52.6433 21.255 49.8545 22.6866 46.2766 22.6866C43.9974 22.6866 41.768 22.1443 40.9442 21.7823L40.9048 21.7646V22.3429H35.7211L35.4391 20.7969L35.2985 20.7683C34.2283 21.8278 32.8196 22.6866 30.5659 22.6866C27.0169 22.6866 26.4529 20.2247 26.4529 18.4493C26.4529 15.6149 28.1651 14.2958 31.616 14.0474L34.9606 13.8115L34.9605 12.1816L34.959 12.0193L34.9569 11.9122L34.9512 11.7557L34.9456 11.6541C34.8807 10.6334 34.5542 9.97488 33.0731 9.97488L32.9004 9.97616L32.7893 9.97857C31.6406 10.0114 31.0354 10.2909 31.017 11.8205L31.0166 11.8932L27.0443 11.5491C27.0443 7.72303 30.4408 7.15135 33.0234 7.14029L33.1014 7.14013ZM135.171 0.714233L135.172 19.2665L135.175 19.3328C135.188 19.5819 135.253 19.6419 135.539 19.6873L136.951 19.897V22.1388H131.779L131.501 20.5497L131.306 20.5213C130.139 21.6848 128.776 22.4793 126.747 22.4793C123.465 22.4793 121.352 20.3511 121.352 14.9311C121.352 9.22732 124.161 7.07067 127.247 7.07067C128.821 7.07067 130.051 7.61151 131.092 8.3764L131.167 8.43276V4.11946C131.167 3.85063 131.068 3.65821 130.844 3.56631L130.806 3.55193L129.276 3.01276L129.583 0.714233H135.171ZM118.998 6.93284C119.634 6.93284 120.884 7.04081 121.432 7.17848L121.486 7.19283V12.4503L118.054 12.3348L117.769 10.8038C117.711 10.5438 117.625 10.486 117.396 10.486C116.696 10.486 115.87 11.0489 115.418 11.4283L115.337 11.497V19.202C115.339 19.6073 115.379 19.6965 115.756 19.7271L118.626 19.9611V22.272H109.274V19.9321L110.56 19.7588C110.948 19.703 111.014 19.62 111.018 19.222V10.7171C111.018 10.4137 110.94 10.2157 110.684 10.123L110.646 10.1105L109.117 9.56674L109.105 9.53824L109.416 7.22171H114.45L114.794 9.53275H114.965C115.909 8.05945 117.168 6.93284 118.998 6.93284ZM20.1216 1.54338C25.3787 1.54338 26.9695 4.34941 26.9695 7.64178C26.9695 12.5736 24.0458 14.5872 19.3275 14.627L19.184 14.6276H17.1097L17.1101 19.2898L17.1118 19.3623L17.1154 19.4291C17.1334 19.6686 17.2067 19.7264 17.4893 19.7704L17.5646 19.7813L21.6276 20.0103V22.272H10.4895V22.2654L10.477 22.272H0.592593V20.0202L3.01404 19.8202C3.38225 19.7937 3.45568 19.6928 3.46383 19.3319L3.46466 19.2505V9.40632C3.46466 8.99798 3.16072 9.06535 1.04382 9.78991L0.262695 7.45221L5.1009 4.65269H7.71693L7.71703 19.2922L7.71798 19.3692L7.72041 19.4383C7.73486 19.7208 7.80576 19.7912 8.12937 19.8174L8.16784 19.8202L10.477 20.0202L10.4895 20.0263V20.0103L12.2795 19.8097C12.6505 19.7565 12.725 19.6782 12.7333 19.3187L12.7342 19.2372V4.60699C12.7342 4.19199 12.6807 4.07074 12.3182 4.03735L12.2795 4.0342L10.4895 3.83396V1.54338H20.1216ZM34.881 16.0379L32.9657 16.1798C31.3046 16.2932 30.7131 16.7186 30.7131 17.8538C30.7131 18.9892 31.389 19.4147 32.3184 19.4147C33.247 19.4147 34.1756 18.9075 34.8213 18.4372L34.881 18.3932V16.0379ZM128.477 10.3648C126.437 10.3648 125.624 12.2942 125.607 14.7976V14.8795C125.607 17.651 126.387 19.1941 128.142 19.1941C129.062 19.1941 130.062 18.6548 130.808 18.0215L130.874 17.9654V11.222C130.177 10.7363 129.285 10.3648 128.477 10.3648ZM18.7129 4.68723H17.051V11.5257L18.5151 11.5255L18.6259 11.5245L18.7893 11.5207L18.8951 11.5169L19.0508 11.5087C20.7284 11.4051 22.3737 10.7622 22.3737 7.89357C22.3737 5.16926 20.7118 4.68723 18.7129 4.68723Z" fill="#6B6B6B"/>
<path fill-rule="evenodd" clip-rule="evenodd" d="M98.4949 2.22974C105.121 2.22974 110.493 7.65506 110.493 14.3474C110.493 21.04 105.121 26.465 98.4949 26.465C91.8685 26.465 86.4971 21.04 86.4971 14.3474C86.4971 7.65506 91.8685 2.22974 98.4949 2.22974ZM98.4949 4.69114C93.2144 4.69114 88.9339 9.01443 88.9339 14.3474C88.9339 19.6806 93.2144 24.0037 98.4949 24.0037C103.775 24.0037 108.056 19.6806 108.056 14.3474C108.056 9.01443 103.775 4.69114 98.4949 4.69114ZM98.4949 7.15254C102.429 7.15254 105.618 10.3738 105.618 14.3474C105.618 18.3212 102.429 21.5422 98.4949 21.5422C94.5603 21.5422 91.3707 18.3212 91.3707 14.3474C91.3707 10.3738 94.5603 7.15254 98.4949 7.15254ZM99.6442 9.23526H97.3455C97.0589 9.23526 96.8245 9.48719 96.8082 9.80477L96.8074 9.84039V12.2666C96.8108 12.3566 96.8408 12.4477 96.8949 12.5199L96.9164 12.5461L97.252 12.9243C97.385 13.0735 97.3919 13.3106 97.2734 13.4691L97.252 13.4947L96.9164 13.8729C96.8563 13.9402 96.8202 14.0287 96.8125 14.1227L96.8108 14.1581L96.8074 18.8544C96.8074 19.1767 97.0314 19.4401 97.3138 19.4585L97.3455 19.4596H99.6442C99.9308 19.4596 100.164 19.2076 100.181 18.89L100.181 18.8544V16.612C100.181 16.5169 100.152 16.4253 100.098 16.3529L100.077 16.3267L99.7403 15.9485C99.6081 15.7993 99.6012 15.5622 99.7197 15.4037L99.7403 15.378L100.077 14.9998C100.137 14.9326 100.173 14.844 100.181 14.7501L100.181 14.7146V9.84039C100.181 9.50615 99.9411 9.23526 99.6442 9.23526Z" fill="#6B6B6B"/>
</g>
<defs>
<clipPath id="clip0_4_4869">
<rect width="136.475" height="25.75" fill="white" transform="translate(0.262695 0.714233)"/>
</clipPath>
</defs>
</svg>
