<svg width="137" height="27" viewBox="0 0 137 27" fill="none" xmlns="http://www.w3.org/2000/svg">
<g clip-path="url(#clip0_4_4831)">
<path fill-rule="evenodd" clip-rule="evenodd" d="M59.4736 7.09936C61.2388 7.09936 62.9668 7.42013 64.0078 7.71018L64.0969 7.73531L64.1808 7.30664H71.3777V9.69128L69.7847 9.86364L72.0604 17.9369H72.2595L74.7912 7.68014H79.0867L81.533 17.9369H81.7037L83.8372 9.86364L82.2157 9.69128L82.5856 7.30664H88.5597L88.5588 8.91477C88.4301 9.17255 88.3099 9.43584 88.2 9.70424L87.5348 9.83488C87.152 9.89016 86.9795 10.0251 86.8662 10.3675L86.8524 10.4095L83.3536 22.2752H78.859L76.6403 12.6505H76.4696L74.2223 22.2752H69.102L65.5177 10.3808C65.4087 10.0504 65.2735 9.98389 64.962 9.90304L64.9204 9.89239L64.6695 9.83806L64.6856 9.90304V12.0812L61.6548 11.881L61.3714 10.3919C61.3435 10.1629 61.2865 10.0485 61.0886 9.99119L60.9982 9.96483C60.6153 9.85986 59.9817 9.7621 59.2757 9.7621C57.8594 9.7621 57.066 10.3061 57.066 11.2223C57.066 12.2235 58.1996 12.5583 59.605 12.8839L60.5539 13.102L60.6851 13.1335C62.8323 13.6553 65.1107 14.5372 65.1107 17.7213C65.1107 21.2145 62.3067 22.6459 58.7091 22.6459C56.1997 22.6459 53.7441 21.9946 53.1453 21.6433L53.1005 21.6152V17.4638L56.1314 17.6928L56.4151 19.3248L56.4239 19.3945C56.4554 19.6037 56.5243 19.7025 56.7548 19.754L56.8213 19.7755L56.8969 19.7978L56.9816 19.8209L57.079 19.8451C57.4877 19.9424 58.1229 20.0405 58.936 20.0405C60.4367 20.0405 61.2865 19.6111 61.2865 18.5517C61.2865 17.4252 60.1903 17.0745 58.7799 16.8179L58.1348 16.7005L57.86 16.6479C55.6508 16.2134 53.2143 15.4269 53.2143 12.11C53.2143 8.55983 56.2164 7.09936 59.4736 7.09936ZM33.3514 7.09936C37.5905 7.09936 39.3172 8.25036 39.3512 12.1623L39.3518 12.2817L39.3518 19.2807L39.3528 19.3575L39.3553 19.4258L39.3599 19.4884C39.3817 19.7031 39.4593 19.7582 39.7264 19.8003L39.8026 19.8114L40.9486 20.0055V17.4638L43.963 17.6928L44.245 19.3248C44.2725 19.5823 44.3295 19.697 44.583 19.754L44.6491 19.7755L44.7242 19.7978L44.8085 19.8209L44.9054 19.8451C45.3118 19.9424 45.9436 20.0405 46.7522 20.0405C48.2448 20.0405 49.0899 19.6111 49.0899 18.5517C49.0899 17.4628 48.0711 17.0988 46.7362 16.8439L45.9466 16.6989L45.6736 16.6462L45.4756 16.606L45.2828 16.565C43.2016 16.1093 41.0617 15.2268 41.0617 12.11C41.0617 8.55983 44.0475 7.09936 47.2869 7.09936C49.4375 7.09936 51.5356 7.58099 52.3863 7.89732L52.4705 7.92971V12.0812L49.4562 11.881L49.1744 10.3919C49.1466 10.1629 49.0899 10.0485 48.8932 9.99119C48.5269 9.87677 47.8508 9.7621 47.0902 9.7621C45.6815 9.7621 44.8926 10.3061 44.8926 11.2223C44.8926 12.2408 46.059 12.5694 47.4901 12.9006L48.1603 13.0547C50.3857 13.5699 52.8933 14.3717 52.8933 17.7213C52.8933 21.2142 50.1045 22.6459 46.5266 22.6459C44.2474 22.6459 42.018 22.1036 41.1942 21.7415L41.1548 21.7238V22.3022H35.9711L35.6891 20.7561L35.5485 20.7276C34.4783 21.787 33.0696 22.6459 30.8159 22.6459C27.2669 22.6459 26.7029 20.1839 26.7029 18.4085C26.7029 15.5741 28.4151 14.255 31.866 14.0066L35.2106 13.7707L35.2105 12.1408L35.209 11.9786L35.2069 11.8715L35.2012 11.7149L35.1956 11.6133C35.1307 10.5926 34.8042 9.93411 33.3231 9.93411L33.1504 9.93539L33.0393 9.9378C31.8906 9.97067 31.2854 10.2501 31.267 11.7797L31.2666 11.8524L27.2943 11.5084C27.2943 7.68226 30.6908 7.11058 33.2734 7.09952L33.3514 7.09936ZM135.421 0.673462L135.422 19.2257L135.425 19.292C135.438 19.5411 135.503 19.6011 135.789 19.6465L137.201 19.8563V22.0981H132.029L131.751 20.5089L131.556 20.4805C130.389 21.644 129.026 22.4386 126.997 22.4386C123.715 22.4386 121.602 20.3103 121.602 14.8903C121.602 9.18655 124.411 7.0299 127.497 7.0299C129.071 7.0299 130.301 7.57074 131.342 8.33563L131.417 8.39199V4.07869C131.417 3.80986 131.318 3.61743 131.094 3.52554L131.056 3.51115L129.526 2.97199L129.833 0.673462H135.421ZM119.248 6.89207C119.884 6.89207 121.134 7.00004 121.682 7.13771L121.736 7.15206V12.4095L118.304 12.294L118.019 10.763C117.961 10.503 117.875 10.4452 117.646 10.4452C116.946 10.4452 116.12 11.0081 115.668 11.3875L115.587 11.4563V19.1613C115.589 19.5665 115.629 19.6558 116.006 19.6863L118.876 19.9203V22.2313H109.524V19.8914L110.81 19.7181C111.198 19.6622 111.264 19.5792 111.268 19.1812V10.6763C111.268 10.373 111.19 10.175 110.934 10.0823L110.896 10.0697L109.367 9.52597L109.355 9.49747L109.666 7.18094H114.7L115.044 9.49198H115.215C116.159 8.01868 117.418 6.89207 119.248 6.89207ZM20.3716 1.50261C25.6287 1.50261 27.2195 4.30864 27.2195 7.60101C27.2195 12.5328 24.2958 14.5464 19.5775 14.5862L19.434 14.5869H17.3597L17.3601 19.249L17.3618 19.3215L17.3654 19.3883C17.3834 19.6278 17.4567 19.6856 17.7393 19.7297L17.8146 19.7405L21.8776 19.9696V22.2313H10.7395V22.2247L10.727 22.2313H0.842593V19.9794L3.26404 19.7794C3.63225 19.7529 3.70568 19.652 3.71383 19.2911L3.71466 19.2098V9.36555C3.71466 8.95721 3.41072 9.02458 1.29382 9.74914L0.512695 7.41144L5.3509 4.61192H7.96693L7.96703 19.2514L7.96798 19.3285L7.97041 19.3975C7.98486 19.6801 8.05576 19.7504 8.37937 19.7766L8.41784 19.7794L10.727 19.9794L10.7395 19.9855V19.9696L12.5295 19.769C12.9005 19.7158 12.975 19.6374 12.9833 19.2779L12.9842 19.1965V4.56622C12.9842 4.15122 12.9307 4.02997 12.5682 3.99658L12.5295 3.99343L10.7395 3.79319V1.50261H20.3716ZM35.131 15.9971L33.2157 16.139C31.5546 16.2524 30.9631 16.6779 30.9631 17.813C30.9631 18.9484 31.639 19.3739 32.5684 19.3739C33.497 19.3739 34.4256 18.8667 35.0713 18.3964L35.131 18.3524V15.9971ZM128.727 10.324C126.687 10.324 125.874 12.2534 125.857 14.7568V14.8387C125.857 17.6103 126.637 19.1533 128.392 19.1533C129.312 19.1533 130.312 18.614 131.058 17.9807L131.124 17.9246V11.1813C130.427 10.6955 129.535 10.324 128.727 10.324ZM18.9629 4.64646H17.301V11.4849L18.7651 11.4848L18.8759 11.4837L19.0393 11.48L19.1451 11.4761L19.3008 11.4679C20.9784 11.3643 22.6237 10.7215 22.6237 7.85279C22.6237 5.12849 20.9618 4.64646 18.9629 4.64646Z" fill="#6B6B6B"/>
<path fill-rule="evenodd" clip-rule="evenodd" d="M98.7449 2.18896C105.371 2.18896 110.743 7.61428 110.743 14.3066C110.743 20.9992 105.371 26.4242 98.7449 26.4242C92.1185 26.4242 86.7471 20.9992 86.7471 14.3066C86.7471 7.61428 92.1185 2.18896 98.7449 2.18896ZM98.7449 4.65036C93.4644 4.65036 89.1839 8.97366 89.1839 14.3066C89.1839 19.6398 93.4644 23.9629 98.7449 23.9629C104.025 23.9629 108.306 19.6398 108.306 14.3066C108.306 8.97366 104.025 4.65036 98.7449 4.65036ZM98.7449 7.11176C102.679 7.11176 105.868 10.3331 105.868 14.3066C105.868 18.2804 102.679 21.5014 98.7449 21.5014C94.8103 21.5014 91.6207 18.2804 91.6207 14.3066C91.6207 10.3331 94.8103 7.11176 98.7449 7.11176ZM99.8942 9.19448H97.5955C97.3089 9.19448 97.0745 9.44641 97.0582 9.764L97.0574 9.79962V12.2258C97.0608 12.3158 97.0908 12.4069 97.1449 12.4792L97.1664 12.5053L97.502 12.8835C97.635 13.0327 97.6419 13.2699 97.5234 13.4283L97.502 13.454L97.1664 13.8322C97.1063 13.8994 97.0702 13.9879 97.0625 14.0819L97.0608 14.1174L97.0574 18.8137C97.0574 19.1359 97.2814 19.3993 97.5638 19.4178L97.5955 19.4188H99.8942C100.181 19.4188 100.414 19.1669 100.431 18.8492L100.431 18.8137V16.5712C100.431 16.4761 100.402 16.3845 100.348 16.3121L100.327 16.286L99.9903 15.9078C99.8581 15.7585 99.8512 15.5214 99.9697 15.3629L99.9903 15.3372L100.327 14.9591C100.387 14.8919 100.423 14.8033 100.431 14.7093L100.431 14.6738V9.79962C100.431 9.46538 100.191 9.19448 99.8942 9.19448Z" fill="#6B6B6B"/>
</g>
<defs>
<clipPath id="clip0_4_4831">
<rect width="136.475" height="25.75" fill="white" transform="translate(0.512695 0.673462)"/>
</clipPath>
</defs>
</svg>
