<svg width="20" height="21" viewBox="0 0 20 21" fill="none" xmlns="http://www.w3.org/2000/svg">
<g clip-path="url(#clip0_4_5263)">
<path d="M17.4771 5.67596C17.0901 6.19223 16.6222 6.64257 16.0917 7.00959C16.0917 7.14445 16.0917 7.27931 16.0917 7.42167C16.0959 9.87071 15.1177 12.219 13.3762 13.9402C11.6347 15.6614 9.27574 16.6114 6.82811 16.5772C5.41306 16.582 4.01613 16.2589 2.74675 15.6332C2.6783 15.6033 2.63416 15.5356 2.63442 15.4609V15.3785C2.63442 15.2709 2.7216 15.1837 2.82913 15.1837C4.22009 15.1378 5.56142 14.6555 6.66335 13.8051C5.40435 13.7797 4.27156 13.0339 3.75024 11.887C3.72391 11.8245 3.7321 11.7525 3.77188 11.6975C3.81165 11.6424 3.87724 11.612 3.94495 11.6174C4.32759 11.6558 4.71405 11.6202 5.08324 11.5125C3.6934 11.224 2.64908 10.0701 2.49962 8.65788C2.49431 8.59013 2.52467 8.52454 2.57974 8.48471C2.6348 8.44496 2.7066 8.43671 2.76922 8.46313C3.14219 8.62771 3.54481 8.71438 3.95244 8.71779C2.7346 7.91851 2.20858 6.39817 2.67186 5.01664C2.71969 4.8824 2.83458 4.78323 2.97432 4.75558C3.11405 4.72792 3.25804 4.77586 3.35334 4.88179C4.99673 6.63084 7.25477 7.67309 9.65132 7.78879C9.58999 7.54384 9.55982 7.29209 9.56149 7.03956C9.5839 5.71539 10.4032 4.5358 11.6359 4.05302C12.8685 3.57024 14.2705 3.87982 15.1856 4.83683C15.8092 4.718 16.4122 4.5085 16.9753 4.21497C17.0166 4.18922 17.0689 4.18922 17.1102 4.21497C17.1359 4.25624 17.1359 4.30856 17.1102 4.34983C16.8374 4.97439 16.3767 5.49823 15.7922 5.84828C16.304 5.78893 16.8068 5.66818 17.2899 5.48866C17.3306 5.46098 17.384 5.46098 17.4247 5.48866C17.4587 5.50424 17.4842 5.53405 17.4943 5.57014C17.5044 5.60623 17.4981 5.64494 17.4771 5.67596Z" fill="white" fill-opacity="0.65"/>
</g>
<defs>
<clipPath id="clip0_4_5263">
<rect width="20" height="20" fill="white" transform="translate(0 0.078125)"/>
</clipPath>
</defs>
</svg>
