<svg width="20" height="21" viewBox="0 0 20 21" fill="none" xmlns="http://www.w3.org/2000/svg">
<g clip-path="url(#clip0_4_5267)">
<path fill-rule="evenodd" clip-rule="evenodd" d="M4.16667 2.57812H15.8333C16.7538 2.57812 17.5 3.32432 17.5 4.24479V15.9115C17.5 16.832 16.7538 17.5781 15.8333 17.5781H4.16667C3.24619 17.5781 2.5 16.832 2.5 15.9115V4.24479C2.5 3.32432 3.24619 2.57812 4.16667 2.57812ZM6.66667 15.0781C6.89678 15.0781 7.08333 14.8915 7.08333 14.6615V8.82812C7.08333 8.59804 6.89678 8.41146 6.66667 8.41146H5.41667C5.18655 8.41146 5 8.59804 5 8.82812V14.6615C5 14.8915 5.18655 15.0781 5.41667 15.0781H6.66667ZM6.04167 7.57812C5.35131 7.57812 4.79167 7.01848 4.79167 6.32812C4.79167 5.63777 5.35131 5.07812 6.04167 5.07812C6.73202 5.07812 7.29167 5.63777 7.29167 6.32812C7.29167 7.01848 6.73202 7.57812 6.04167 7.57812ZM14.5833 15.0781C14.8134 15.0781 15 14.8915 15 14.6615V10.8281C15.0271 9.50379 14.048 8.37356 12.7333 8.21146C11.8142 8.1275 10.9236 8.55679 10.4167 9.32812V8.82812C10.4167 8.59804 10.2301 8.41146 10 8.41146H8.75C8.51992 8.41146 8.33333 8.59804 8.33333 8.82812V14.6615C8.33333 14.8915 8.51992 15.0781 8.75 15.0781H10C10.2301 15.0781 10.4167 14.8915 10.4167 14.6615V11.5365C10.4167 10.8461 10.9763 10.2865 11.6667 10.2865C12.357 10.2865 12.9167 10.8461 12.9167 11.5365V14.6615C12.9167 14.8915 13.1032 15.0781 13.3333 15.0781H14.5833Z" fill="white" fill-opacity="0.65"/>
</g>
<defs>
<clipPath id="clip0_4_5267">
<rect width="20" height="20" fill="white" transform="translate(0 0.078125)"/>
</clipPath>
</defs>
</svg>
