<svg width="20" height="21" viewBox="0 0 20 21" fill="none" xmlns="http://www.w3.org/2000/svg">
<g clip-path="url(#clip0_4_5259)">
<path d="M17.9944 6.08096C17.8995 5.72879 17.714 5.40763 17.4564 5.14943C17.1988 4.89123 16.8781 4.70501 16.5261 4.60929C15.2211 4.25096 10.0003 4.24512 10.0003 4.24512C10.0003 4.24512 4.78027 4.23929 3.47444 4.58179C3.12271 4.68191 2.80263 4.87077 2.54491 5.13024C2.2872 5.3897 2.10051 5.71106 2.00277 6.06346C1.65861 7.36846 1.65527 10.0751 1.65527 10.0751C1.65527 10.0751 1.65194 12.7951 1.99361 14.0868C2.18527 14.801 2.74777 15.3651 3.46277 15.5576C4.78111 15.916 9.98777 15.9218 9.98777 15.9218C9.98777 15.9218 15.2086 15.9276 16.5136 15.586C16.8657 15.4904 17.1867 15.3046 17.445 15.0469C17.7032 14.7893 17.8898 14.4687 17.9861 14.1168C18.3311 12.8126 18.3336 10.1068 18.3336 10.1068C18.3336 10.1068 18.3503 7.38596 17.9944 6.08096ZM8.33028 12.5826L8.33444 7.58262L12.6736 10.0868L8.33028 12.5826Z" fill="white" fill-opacity="0.65"/>
</g>
<defs>
<clipPath id="clip0_4_5259">
<rect width="20" height="20" fill="white" transform="translate(0 0.078125)"/>
</clipPath>
</defs>
</svg>
